<?xml version="1.0" encoding="utf-8"?>
<svg version="1.1" xmlns="http://www.w3.org/2000/svg" xmlns:xlink="http://www.w3.org/1999/xlink" x="0px" y="0px" viewBox="-210.2 301.8 243 243" xml:space="preserve">
    <g id="logo">
        <g>
            <path fill="#4E5E9E" d="M-183.9,515.5v-20.8c0-5.1-2.7-9.8-8-9.8c-5.2,0-8.3,4.6-8.3,9.8v20.8h-9.5v-38.9h8.9l0.7,4.7
                c2-3.9,6.5-5.4,10.2-5.4c4.6,0,9.3,1.9,11.5,7.2c3.5-5.5,8-7.1,13-7.1c11,0,16.5,6.8,16.5,18.4v21h-9.6v-21c0-5.1-2.1-9.5-7.3-9.5
                s-8.4,4.5-8.4,9.6v20.8h-9.7V515.5z"/>
            <path fill="#4E5E9E" d="M-111.5,476.7h9.2v38.8h-9.1l-0.5-5.7c-2.2,4.6-8.3,6.8-12.6,6.9c-11.5,0.1-20-7-20-20.6
                c0-13.4,8.9-20.4,20.2-20.3c5.2,0,10.2,2.4,12.4,6.3L-111.5,476.7z M-134.8,496.1c0,7.4,5.1,11.8,11.5,11.8
                c15.1,0,15.1-23.6,0-23.6C-129.7,484.3-134.8,488.7-134.8,496.1z"/>
            <path fill="#4E5E9E" d="M-86.5,476.7V497c0,5.9,3.2,10.4,9.4,10.4c5.9,0,9.9-5,9.9-10.9v-19.9h9.5v39h-8.6l-0.6-5.3
                c-4,3.9-7.7,5.8-13.2,5.8c-9.3,0-16.1-7-16.1-19.1v-20.4h9.7V476.7z"/>
            <path fill="#4E5E9E" d="M-35.6,465.7v11h10.7v8.3h-10.8v16.8c0,3.7,2,5.5,5,5.5c1.5,0,3.2-0.5,4.6-1.2l2.7,8.2
                c-2.8,1.1-5,1.6-8,1.7c-8.4,0.3-13.9-4.5-13.9-14.2V485h-7.2v-8.3h7.2v-10L-35.6,465.7z"/>
            <path fill="#4E5E9E" d="M-7.3,465.7c0,7.5-11.3,7.5-11.3,0C-18.6,458.3-7.3,458.3-7.3,465.7z M-17.7,476.5v39h9.6v-39H-17.7z"/>
            <path fill="#4E5E9E" d="M32.6,510.6c-4.5,4.4-9.2,6.1-15,6.1C6.3,516.7-3,509.9-3,496.1c0-13.8,9.4-20.6,20.6-20.6
                c5.5,0,9.8,1.6,14,5.8l-6.1,6.4c-2.3-2-5.1-3.1-7.8-3.1c-6.5,0-11.2,4.7-11.2,11.5c0,7.4,5,11.3,11,11.3c3.1,0,6.1-0.9,8.5-3.2
                L32.6,510.6z"/>
        </g>
    </g>
    <g id="brandmark">
        <g>
            <path fill="#4E5E9E" d="M-88.8,446.6c-32.7,0-59.4-26.6-59.4-59.4s26.7-59.4,59.4-59.4c7.9,0,15.6,1.5,22.8,4.6
                c2,0.9,3,3.2,2.2,5.3c-0.9,2-3.2,3-5.3,2.2c-6.3-2.6-12.9-3.9-19.7-3.9c-28.3,0-51.3,23-51.3,51.3s23,51.3,51.3,51.3
                s51.3-23,51.3-51.3c0-6.1-1-12-3.1-17.6c-0.8-2.1,0.3-4.4,2.4-5.2c2.1-0.8,4.4,0.3,5.2,2.4c2.4,6.5,3.6,13.4,3.6,20.4
                C-29.4,419.9-56,446.6-88.8,446.6z"/>
        </g>
        <g>
            <polygon fill="#FDB933" points="-62.8,381.1 -72,390.7 -66.9,412.2 -55.3,412.2"/>
        </g>
        <polygon fill="#FDB933" points="-66.6,352.7 -63.4,355.9 -88.8,382.8 -110.5,360.5 -123,412.2 -111.4,412.2 -104.5,383.5
            -88.8,400.6 -55.2,364 -52,367.3 -48.8,349.2"/>
    </g>
</svg>
